<?xml version="1.0" encoding="utf-8"?>
<!-- Generator: Adobe Illustrator 17.1.0, SVG Export Plug-In . SVG Version: 6.00 Build 0)  -->
<!DOCTYPE svg PUBLIC "-//W3C//DTD SVG 1.1//EN" "http://www.w3.org/Graphics/SVG/1.1/DTD/svg11.dtd">
<svg version="1.1" id="Layer_1" xmlns="http://www.w3.org/2000/svg" xmlns:xlink="http://www.w3.org/1999/xlink" x="0px" y="0px"
	 viewBox="0 0 1397 783" enable-background="new 0 0 1397 783" xml:space="preserve">
<g>
	<path fill="#FBFFDC" stroke="#FBFFDC" d="M1479.3,867.3l60-151.7l-77.4,54.6L1479.3,867.3z"/>
	<path fill="#FFFFE0" stroke="#FFFFE0" d="M1479.3,867.3l-17.3-97.1l-57.4,122L1479.3,867.3z"/>
	<path fill="#F9FEDA" stroke="#F9FEDA" d="M1404.6,892.2l57.4-122l-118.9,0L1404.6,892.2z"/>
	<path fill="#F0FAD9" stroke="#F0FAD9" d="M1404.6,892.2l-61.5-122l-142.5,94.2L1404.6,892.2z"/>
	<path fill="#E7F6D8" stroke="#E7F6D8" d="M1404.6,892.2l-204-27.8l-96.4,3.2L1404.6,892.2z"/>
	<path fill="#CBEBDC" stroke="#CBEBDC" d="M1404.6,892.2l-300.4-24.6l-468.3,68.6L1404.6,892.2z"/>
	<path fill="#E7F7D2" stroke="#E7F7D2" d="M1200.5,864.3l142.5-94.2l-134.5,23.2L1200.5,864.3z"/>
	<path fill="#DEF2D4" stroke="#DEF2D4" d="M1200.5,864.3l8-71l-104.4,74.2L1200.5,864.3z"/>
	<path fill="#D7F0D2" stroke="#D7F0D2" d="M1104.1,867.6l104.4-74.2l-119.9,0L1104.1,867.6z"/>
	<path fill="#CCEBD5" stroke="#CCEBD5" d="M1104.1,867.6l-15.5-74.2L967,871.3L1104.1,867.6z"/>
	<path fill="#B6E3DE" stroke="#B6E3DE" d="M1104.1,867.6L967,871.3l-331.2,64.8L1104.1,867.6z"/>
	<path fill="#C6EAD2" stroke="#C6EAD2" d="M967,871.3l121.7-77.9l-46-44.8L967,871.3z"/>
	<path fill="#BDE6D3" stroke="#BDE6D3" d="M967,871.3l75.7-122.7l-142.9,56.9L967,871.3z"/>
	<path fill="#B8E3D8" stroke="#B8E3D8" d="M967,871.3l-67.2-65.8l-31.4,51.4L967,871.3z"/>
	<path fill="#ACDFDF" stroke="#ACDFDF" d="M967,871.3l-98.6-14.4l-232.6,79.2L967,871.3z"/>
	<path fill="#ADE1D5" stroke="#ADE1D5" d="M868.4,856.9l31.4-51.4L795,771.8L868.4,856.9z"/>
	<path fill="#A7DED9" stroke="#A7DED9" d="M868.4,856.9L795,771.8l-69.2,103.7L868.4,856.9z"/>
	<path fill="#A1DBE0" stroke="#A1DBE0" d="M868.4,856.9l-142.7,18.5l-90,60.7L868.4,856.9z"/>
	<path fill="#9DD8D8" stroke="#9DD8D8" d="M725.7,875.5L795,771.8l-175.4,26L725.7,875.5z"/>
	<path fill="#9DD2DC" stroke="#9DD2DC" d="M725.7,875.5l-106.2-77.6l16.2,138.3L725.7,875.5z"/>
	<path fill="#9ACBDA" stroke="#9ACBDA" d="M635.8,936.1l-16.2-138.3l-73,63.7L635.8,936.1z"/>
	<path fill="#98C4DD" stroke="#98C4DD" d="M635.8,936.1l-89.2-74.6L450,913.3L635.8,936.1z"/>
	<path fill="#95B3D6" stroke="#95B3D6" d="M635.8,936.1L450,913.3l-249,39.4L635.8,936.1z"/>
	<path fill="#95C6D2" stroke="#95C6D2" d="M546.5,861.6l73-63.7L527.5,741L546.5,861.6z"/>
	<path fill="#92C0CF" stroke="#92C0CF" d="M546.5,861.6l-19-120.6l-68.2,12.2L546.5,861.6z"/>
	<path fill="#95BCD4" stroke="#95BCD4" d="M546.5,861.6l-87.3-108.4L450,913.3L546.5,861.6z"/>
	<path fill="#94AECF" stroke="#94AECF" d="M450,913.3l9.3-160.2l-172,149.3L450,913.3z"/>
	<path fill="#93A0CD" stroke="#93A0CD" d="M450,913.3l-162.7-10.9l-86.3,50.3L450,913.3z"/>
	<path fill="#91A4C5" stroke="#91A4C5" d="M287.3,902.4l172-149.3l-206.9,22.5L287.3,902.4z"/>
	<path fill="#9296C5" stroke="#9296C5" d="M287.3,902.4l-34.9-126.8l-51.4,177.1L287.3,902.4z"/>
	<path fill="#908FBC" stroke="#908FBC" d="M200.9,952.8l51.4-177.1l-97.8-18.7L200.9,952.8z"/>
	<path fill="#9086BE" stroke="#9086BE" d="M200.9,952.8l-46.4-195.9L82.3,934.1L200.9,952.8z"/>
	<path fill="#8F80B4" stroke="#8F80B4" d="M82.3,934.1l72.2-177.2L20.6,824L82.3,934.1z"/>
	<path fill="#8E80B2" stroke="#8E80B2" d="M82.3,934.1L20.6,824l-109.9,41.8L82.3,934.1z"/>
	<path fill="#8B80A8" stroke="#8B80A8" d="M-89.3,865.8L20.6,824l-53.8-79.2L-89.3,865.8z"/>
	<path fill="#8880A2" stroke="#8880A2" d="M-89.3,865.8l56.1-121l-29-47.2L-89.3,865.8z"/>
	<path fill="#807F9A" stroke="#807F9A" d="M-89.3,865.8l27.1-168.1l-51.9-144L-89.3,865.8z"/>
	<path fill="#F3FFD4" stroke="#F3FFD4" d="M1462,770.2l77.4-54.6l-144.5-76.4L1462,770.2z"/>
	<path fill="#F2FED1" stroke="#F2FED1" d="M1462,770.2l-67.1-131L1343,770.1L1462,770.2z"/>
	<path fill="#E3F9CC" stroke="#E3F9CC" d="M1343,770.1l51.8-130.9l-164.3,52.9L1343,770.1z"/>
	<path fill="#E4F7CD" stroke="#E4F7CD" d="M1343,770.1l-112.5-78l-22,101.2L1343,770.1z"/>
	<path fill="#D9F3CB" stroke="#D9F3CB" d="M1208.6,793.4l22-101.2l-141.9,101.2L1208.6,793.4z"/>
	<path fill="#CEF1C7" stroke="#CEF1C7" d="M1088.6,793.4l141.9-101.2l-77.5-73.8L1088.6,793.4z"/>
	<path fill="#CAEEC8" stroke="#CAEEC8" d="M1088.6,793.4l64.4-175l-110.3,130.2L1088.6,793.4z"/>
	<path fill="#B8EBC9" stroke="#B8EBC9" d="M1042.7,748.6L1153,618.4L1023.6,657L1042.7,748.6z"/>
	<path fill="#B1E6CA" stroke="#B1E6CA" d="M1042.7,748.6l-19.1-91.6l-126.2,13.5L1042.7,748.6z"/>
	<path fill="#B5E5CC" stroke="#B5E5CC" d="M1042.7,748.6l-145.3-78.1l2.4,135L1042.7,748.6z"/>
	<path fill="#AAE1CF" stroke="#AAE1CF" d="M899.8,805.5l-2.4-135L795,771.8L899.8,805.5z"/>
	<path fill="#9DDECD" stroke="#9DDECD" d="M795,771.8l102.5-101.3l-162.6,4.7L795,771.8z"/>
	<path fill="#96DBCE" stroke="#96DBCE" d="M795,771.8l-60.1-96.6l-25.5,6L795,771.8z"/>
	<path fill="#98D7D1" stroke="#98D7D1" d="M795,771.8l-85.7-90.6l-89.7,116.6L795,771.8z"/>
	<path fill="#93CDCD" stroke="#93CDCD" d="M619.6,797.8l89.7-116.6L527.5,741L619.6,797.8z"/>
	<path fill="#82C9CC" stroke="#82C9CC" d="M527.5,741l181.8-59.8l-154.6-83.5L527.5,741z"/>
	<path fill="#80C0CA" stroke="#80C0CA" d="M527.5,741l27.2-143.2l-64.2,88.9L527.5,741z"/>
	<path fill="#8DBDC8" stroke="#8DBDC8" d="M527.5,741l-37-54.4l-31.2,66.5L527.5,741z"/>
	<path fill="#88B8C5" stroke="#88B8C5" d="M459.3,753.1l31.2-66.5L445,671.2L459.3,753.1z"/>
	<path fill="#85ADC0" stroke="#85ADC0" d="M459.3,753.1L445,671.2l-160.2-0.5L459.3,753.1z"/>
	<path fill="#8BA4BC" stroke="#8BA4BC" d="M459.3,753.1l-174.5-82.4l-32.4,104.9L459.3,753.1z"/>
	<path fill="#8A93B5" stroke="#8A93B5" d="M252.4,775.6l32.4-104.9l-130.2,86.2L252.4,775.6z"/>
	<path fill="#7C8EB2" stroke="#7C8EB2" d="M154.6,756.9l130.2-86.2l-97.7-54.9L154.6,756.9z"/>
	<path fill="#7C83AD" stroke="#7C83AD" d="M154.6,756.9l32.5-141.1L78.5,672.7L154.6,756.9z"/>
	<path fill="#8980AB" stroke="#8980AB" d="M154.6,756.9l-76.1-84.2L20.6,824L154.6,756.9z"/>
	<path fill="#8880A6" stroke="#8880A6" d="M20.6,824l57.9-151.3l-111.7,72.2L20.6,824z"/>
	<path fill="#817FA1" stroke="#817FA1" d="M-33.2,744.8l111.7-72.2l-140.7,25L-33.2,744.8z"/>
	<path fill="#D8FCD8" stroke="#D8FCD8" d="M1539.3,715.6l10.3-196.1l-154.8,119.7L1539.3,715.6z"/>
	<path fill="#C5F8D7" stroke="#C5F8D7" d="M1394.8,639.2l154.8-119.7l-196.1,17.8L1394.8,639.2z"/>
	<path fill="#CAF7CF" stroke="#CAF7CF" d="M1394.8,639.2l-41.3-102l-123,154.9L1394.8,639.2z"/>
	<path fill="#B8F2CD" stroke="#B8F2CD" d="M1230.5,692.1l123-154.9l-128-1.3L1230.5,692.1z"/>
	<path fill="#B7F0CA" stroke="#B7F0CA" d="M1230.5,692.1l-5.1-156.2l-52.6,52.4L1230.5,692.1z"/>
	<path fill="#BCF0C9" stroke="#BCF0C9" d="M1230.5,692.1l-57.7-103.8l-19.8,30L1230.5,692.1z"/>
	<path fill="#9BE8CC" stroke="#9BE8CC" d="M1153,618.4l19.8-30l-151.1-107.8L1153,618.4z"/>
	<path fill="#9AE7CC" stroke="#9AE7CC" d="M1153,618.4l-131.2-137.8l1.9,176.4L1153,618.4z"/>
	<path fill="#86E0CE" stroke="#86E0CE" d="M1023.6,657l-1.9-176.4l-58.5,36.5L1023.6,657z"/>
	<path fill="#87E0CE" stroke="#87E0CE" d="M1023.6,657l-60.4-139.9l-37.7,21.6L1023.6,657z"/>
	<path fill="#94E2CD" stroke="#94E2CD" d="M1023.6,657l-98-118.3l-28.2,131.8L1023.6,657z"/>
	<path fill="#7EDCCF" stroke="#7EDCCF" d="M897.4,670.5l28.2-131.8l-156.1,17.6L897.4,670.5z"/>
	<path fill="#84DBCF" stroke="#84DBCF" d="M897.4,670.5L769.5,556.2l-34.7,118.9L897.4,670.5z"/>
	<path fill="#72D3D1" stroke="#72D3D1" d="M734.8,675.2l34.7-118.9l-136.7,28.2L734.8,675.2z"/>
	<path fill="#7ED3CF" stroke="#7ED3CF" d="M734.8,675.2l-102-90.7l76.5,96.7L734.8,675.2z"/>
	<path fill="#73CBCE" stroke="#73CBCE" d="M709.3,681.2l-76.5-96.7l-78.1,13.3L709.3,681.2z"/>
	<path fill="#77BCC9" stroke="#77BCC9" d="M490.5,686.6l64.2-88.9L445,671.2L490.5,686.6z"/>
	<path fill="#68B7C9" stroke="#68B7C9" d="M445,671.2l109.6-73.4L434.4,548L445,671.2z"/>
	<path fill="#6FA9C1" stroke="#6FA9C1" d="M445,671.2L434.4,548L284.8,670.7L445,671.2z"/>
	<path fill="#629FBE" stroke="#629FBE" d="M284.8,670.7L434.4,548L277,568.7L284.8,670.7z"/>
	<path fill="#6892B7" stroke="#6892B7" d="M284.8,670.7l-7.8-102l-89.9,47.1L284.8,670.7z"/>
	<path fill="#5788B6" stroke="#5788B6" d="M187.1,615.8l89.9-47.1l-113-60.5L187.1,615.8z"/>
	<path fill="#517DB2" stroke="#517DB2" d="M187.1,615.8l-23.2-107.6l-72,12.4L187.1,615.8z"/>
	<path fill="#617DAD" stroke="#617DAD" d="M187.1,615.8L92,520.5L78.5,672.7L187.1,615.8z"/>
	<path fill="#597AA6" stroke="#597AA6" d="M78.5,672.7L92,520.5l-206.1,33.1L78.5,672.7z"/>
	<path fill="#6C7DA1" stroke="#6C7DA1" d="M78.5,672.7l-192.6-119l51.9,144L78.5,672.7z"/>

	<path fill="#A2E2DE" stroke="#A2E2DE" d="M1549.6,519.5l-41.8-277.6l18,237.5L1549.6,519.5z"/>
	<path fill="#B0F0DD" stroke="#B0F0DD" d="M1549.6,519.5l-23.8-40.1l-128.6-12.8L1549.6,519.5z"/>
	<path fill="#B5F2D9" stroke="#B5F2D9" d="M1549.6,519.5l-152.4-52.9l-43.7,70.7L1549.6,519.5z"/>
	<path fill="#A0EAD6" stroke="#A0EAD6" d="M1353.5,537.2l43.7-70.7l-95.2-65.2L1353.5,537.2z"/>
	<path fill="#9FEAD2" stroke="#9FEAD2" d="M1353.5,537.2L1302,401.4l-76.5,134.5L1353.5,537.2z"/>
	<path fill="#8CE2D0" stroke="#8CE2D0" d="M1225.5,535.9l76.5-134.5l-168,24.6L1225.5,535.9z"/>
	<path fill="#98E6CD" stroke="#98E6CD" d="M1225.5,535.9l-91.5-110l38.9,162.4L1225.5,535.9z"/>
	<path fill="#88E0CF" stroke="#88E0CF" d="M1172.8,588.3L1134,425.9l-112.2,54.6L1172.8,588.3z"/>
	<path fill="#69D4D2" stroke="#69D4D2" d="M963.3,517.1l58.5-36.5l-118.3-72.9L963.3,517.1z"/>
	<path fill="#6AD5D2" stroke="#6AD5D2" d="M963.3,517.1l-59.8-109.4l22.2,131L963.3,517.1z"/>
	<path fill="#65D3D3" stroke="#65D3D3" d="M925.6,538.7l-22.2-131l-134,148.5L925.6,538.7z"/>
	<path fill="#4FCAD6" stroke="#4FCAD6" d="M769.5,556.2l134-148.5l-170.6-15L769.5,556.2z"/>
	<path fill="#46C4D6" stroke="#46C4D6" d="M769.5,556.2l-36.7-163.6l-65.6,4.1L769.5,556.2z"/>
	<path fill="#55C8D4" stroke="#55C8D4" d="M769.5,556.2L667.2,396.7l-34.4,187.7L769.5,556.2z"/>
	<path fill="#47BBD3" stroke="#47BBD3" d="M632.8,584.5l34.4-187.7L530,445.3L632.8,584.5z"/>
	<path fill="#58BED0" stroke="#58BED0" d="M632.8,584.5L530,445.3l24.7,152.5L632.8,584.5z"/>
	<path fill="#52B5CE" stroke="#52B5CE" d="M554.7,597.7L530,445.3L434.4,548L554.7,597.7z"/>
	<path fill="#45A7CB" stroke="#45A7CB" d="M434.4,548L530,445.3L382.9,473L434.4,548z"/>
	<path fill="#509EC3" stroke="#509EC3" d="M434.4,548l-51.4-75L277,568.7L434.4,548z"/>
	<path fill="#4792C0" stroke="#4792C0" d="M277,568.7L382.9,473l-116.2-2L277,568.7z"/>
	<path fill="#4A88BA" stroke="#4A88BA" d="M277,568.7L266.7,471l-102.7,37.2L277,568.7z"/>
	<path fill="#3C7BB8" stroke="#3C7BB8" d="M163.9,508.2L266.7,471L137,432.8L163.9,508.2z"/>
	<path fill="#4074B3" stroke="#4074B3" d="M163.9,508.2l-27-75.4l-45,87.8L163.9,508.2z"/>
	<path fill="#396EB0" stroke="#396EB0" d="M92,520.5l45-87.8l-124,5.8L92,520.5z"/>
	<path fill="#4372A8" stroke="#4372A8" d="M92,520.5l-79-81.9l-127.1,115L92,520.5z"/>
	<path fill="#3A6FA5" stroke="#3A6FA5" d="M-114.2,553.6l127.1-115l-69.4,1.7L-114.2,553.6z"/>
	<path fill="#2E5DA0" stroke="#2E5DA0" d="M-114.2,553.6l57.7-113.3L-75.9,187L-114.2,553.6z"/>
	<path fill="#9CD0D8" stroke="#9CD0D8" d="M1525.8,479.3l-18-237.5l-65.6,69.1L1525.8,479.3z"/>
	<path fill="#A3E3DA" stroke="#A3E3DA" d="M1525.8,479.3l-83.5-168.4l-45,155.6L1525.8,479.3z"/>
	<path fill="#9AD3D4" stroke="#9AD3D4" d="M1397.2,466.6l45-155.6l-52.5-2.9L1397.2,466.6z"/>
	<path fill="#98D9D4" stroke="#98D9D4" d="M1397.2,466.6l-7.5-158.5l-87.7,93.4L1397.2,466.6z"/>
	<path fill="#8BC6CE" stroke="#8BC6CE" d="M1302,401.4l87.7-93.4l-157.3-26.7L1302,401.4z"/>
	<path fill="#81C2C9" stroke="#81C2C9" d="M1302,401.4l-69.6-120l-66,9.9L1302,401.4z"/>
	<path fill="#82CCCA" stroke="#82CCCA" d="M1302,401.4l-135.5-110.2L1134,425.9L1302,401.4z"/>
	<path fill="#6FBCCA" stroke="#6FBCCA" d="M1134,425.9l32.5-134.7l-149-10.9L1134,425.9z"/>
	<path fill="#6ECACE" stroke="#6ECACE" d="M1134,425.9l-116.5-145.7l4.3,200.3L1134,425.9z"/>
	<path fill="#61C3CF" stroke="#61C3CF" d="M1021.8,480.6l-4.3-200.3l-114,127.4L1021.8,480.6z"/>
	<path fill="#57B2CC" stroke="#57B2CC" d="M903.4,407.7l114-127.4l-95.2,11.5L903.4,407.7z"/>
	<path fill="#4EB1CE" stroke="#4EB1CE" d="M903.4,407.7l18.8-116l-146.7,27.5L903.4,407.7z"/>
	<path fill="#48B6D1" stroke="#48B6D1" d="M903.4,407.7l-127.9-88.5l-42.7,73.5L903.4,407.7z"/>
	<path fill="#3DACD1" stroke="#3DACD1" d="M732.8,392.7l42.7-73.5l-120,31L732.8,392.7z"/>
	<path fill="#3DAFD1" stroke="#3DAFD1" d="M732.8,392.7l-77.3-42.5l11.7,46.6L732.8,392.7z"/>
	<path fill="#3AA4CF" stroke="#3AA4CF" d="M667.2,396.7l-11.7-46.6l-112.4,0.6L667.2,396.7z"/>
	<path fill="#3BA7D0" stroke="#3BA7D0" d="M667.2,396.7l-124-45.9L530,445.3L667.2,396.7z"/>
	<path fill="#39A1CE" stroke="#39A1CE" d="M530,445.3l13.2-94.5L382.9,473L530,445.3z"/>
	<path fill="#338CC8" stroke="#338CC8" d="M382.9,473l160.2-122.2l-92.4-97.3L382.9,473z"/>
	<path fill="#307CC1" stroke="#307CC1" d="M382.9,473l67.9-219.5L290.4,315L382.9,473z"/>
	<path fill="#3685C1" stroke="#3685C1" d="M382.9,473L290.4,315L266.7,471L382.9,473z"/>
	<path fill="#306BB8" stroke="#306BB8" d="M266.7,471L290.4,315l-115.5-14.8L266.7,471z"/>
	<path fill="#336CB6" stroke="#336CB6" d="M266.7,471l-91.8-170.7L137,432.8L266.7,471z"/>
	<path fill="#2C51AD" stroke="#2C51AD" d="M137,432.8l37.9-132.6l-145.7-6.8L137,432.8z"/>
	<path fill="#305CAB" stroke="#305CAB" d="M137,432.8L29.2,293.5L12.9,438.6L137,432.8z"/>
	<path fill="#2B52A4" stroke="#2B52A4" d="M12.9,438.6l16.3-145.2l-64.4,25.8L12.9,438.6z"/>
	<path fill="#2F5EA5" stroke="#2F5EA5" d="M12.9,438.6l-48.2-119.3l-21.2,121L12.9,438.6z"/>
	<path fill="#27489D" stroke="#27489D" d="M-56.5,440.3l21.2-121L-75.9,187L-56.5,440.3z"/>
	<path fill="#98B3C8" stroke="#98B3C8" d="M1442.3,310.9l65.6-69.1l-140.4-35.5L1442.3,310.9z"/>
	<path fill="#94B9C9" stroke="#94B9C9" d="M1442.3,310.9l-74.8-104.6l22.3,101.7L1442.3,310.9z"/>
	<path fill="#8BB2C4" stroke="#8BB2C4" d="M1389.7,308l-22.3-101.7l-135,75L1389.7,308z"/>
	<path fill="#84A6BD" stroke="#84A6BD" d="M1232.4,281.3l135-75l-136.1,20L1232.4,281.3z"/>
	<path fill="#7DADBF" stroke="#7DADBF" d="M1232.4,281.3l-1.2-55l-64.8,64.9L1232.4,281.3z"/>
	<path fill="#79A2BA" stroke="#79A2BA" d="M1166.5,291.2l64.8-64.9l-71.3-27.5L1166.5,291.2z"/>
	<path fill="#6EA3BE" stroke="#6EA3BE" d="M1166.5,291.2l-6.5-92.4l-142.5,81.5L1166.5,291.2z"/>
	<path fill="#6596B9" stroke="#6596B9" d="M1017.5,280.3l142.5-81.5l-143.4-2.1L1017.5,280.3z"/>
	<path fill="#5A96BD" stroke="#5A96BD" d="M1017.5,280.3l-0.8-83.6l-92.8,44.3L1017.5,280.3z"/>
	<path fill="#569FC3" stroke="#569FC3" d="M1017.5,280.3l-93.6-39.4l-1.6,50.8L1017.5,280.3z"/>
	<path fill="#4C91BF" stroke="#4C91BF" d="M922.3,291.7l1.6-50.8l-122.1-51.2L922.3,291.7z"/>
	<path fill="#4698C4" stroke="#4698C4" d="M922.3,291.7L801.8,189.7l-26.2,129.5L922.3,291.7z"/>
	<path fill="#3A8AC1" stroke="#3A8AC1" d="M775.5,319.2l26.2-129.5l-126.1,22.1L775.5,319.2z"/>
	<path fill="#3898CA" stroke="#3898CA" d="M775.5,319.2l-99.8-107.5l-20.2,138.4L775.5,319.2z"/>
	<path fill="#3593C9" stroke="#3593C9" d="M655.5,350.2l20.2-138.4l-132.5,139L655.5,350.2z"/>
	<path fill="#317FC2" stroke="#317FC2" d="M543.2,350.8l132.5-139l-224.9,41.7L543.2,350.8z"/>
	<path fill="#2E66B7" stroke="#2E66B7" d="M450.8,253.5l224.9-41.7l-191-62.5L450.8,253.5z"/>
	<path fill="#2C5AB2" stroke="#2C5AB2" d="M450.8,253.5l33.9-104.2l-55.8,61.2L450.8,253.5z"/>
	<path fill="#2D62B6" stroke="#2D62B6" d="M450.8,253.5l-21.9-43L290.4,315L450.8,253.5z"/>
	<path fill="#2B51AE" stroke="#2B51AE" d="M290.4,315l138.5-104.6l-185.2-9.3L290.4,315z"/>
	<path fill="#2A46A8" stroke="#2A46A8" d="M290.4,315l-46.7-113.9l-42.1,15.8L290.4,315z"/>
	<path fill="#2B4DAC" stroke="#2B4DAC" d="M290.4,315l-88.8-98.1l-26.7,83.3L290.4,315z"/>
	<path fill="#2836A1" stroke="#2836A1" d="M174.9,300.2l26.7-83.3l-155.1,2.9L174.9,300.2z"/>
	<path fill="#2839A0" stroke="#2839A0" d="M174.9,300.2L46.5,219.8l-17.3,73.7L174.9,300.2z"/>
	<path fill="#262C94" stroke="#262C94" d="M29.2,293.5l17.3-73.7L-75.9,187L29.2,293.5z"/>
	<path fill="#263897" stroke="#263897" d="M29.2,293.5L-75.9,187l40.7,132.3L29.2,293.5z"/>
	<path fill="#9280AC" stroke="#9280AC" d="M1507.8,241.8l-57.1-305.7L1461.5,38L1507.8,241.8z"/>
	<path fill="#9594B9" stroke="#9594B9" d="M1507.8,241.8L1461.5,38l-94.1,168.3L1507.8,241.8z"/>
	<path fill="#8E7EAC" stroke="#8E7EAC" d="M1367.4,206.3L1461.5,38l-93.4,13.3L1367.4,206.3z"/>
	<path fill="#887EAC" stroke="#887EAC" d="M1367.4,206.3l0.7-155l-86.5,29.9L1367.4,206.3z"/>
	<path fill="#8490B3" stroke="#8490B3" d="M1367.4,206.3l-85.8-125.1l-50.3,145.1L1367.4,206.3z"/>
	<path fill="#7B8CAF" stroke="#7B8CAF" d="M1231.3,226.3l50.3-145.1L1160,198.8L1231.3,226.3z"/>
	<path fill="#7775A2" stroke="#7775A2" d="M1160,198.8l121.6-117.6l-119.5-66.4L1160,198.8z"/>
	<path fill="#686FA2" stroke="#686FA2" d="M1160,198.8l2.1-184l-159.2,27.1L1160,198.8z"/>
	<path fill="#627BAC" stroke="#627BAC" d="M1160,198.8L1002.9,41.8l13.7,154.8L1160,198.8z"/>
	<path fill="#536CA9" stroke="#536CA9" d="M1016.6,196.7l-13.7-154.8l-112.4,78.9L1016.6,196.7z"/>
	<path fill="#5281B5" stroke="#5281B5" d="M1016.6,196.7l-126.1-75.9l33.3,120.2L1016.6,196.7z"/>
	<path fill="#487DB6" stroke="#487DB6" d="M923.8,240.9l-33.3-120.2l-88.8,68.9L923.8,240.9z"/>
	<path fill="#3F68AE" stroke="#3F68AE" d="M801.8,189.7l88.8-68.9L754.7,81.3L801.8,189.7z"/>
	<path fill="#3662AE" stroke="#3662AE" d="M801.8,189.7L754.7,81.3L690,97.4L801.8,189.7z"/>
	<path fill="#356FB5" stroke="#356FB5" d="M801.8,189.7L690,97.4l-14.3,114.4L801.8,189.7z"/>
	<path fill="#305EB0" stroke="#305EB0" d="M675.7,211.8L690,97.4l-205.3,51.9L675.7,211.8z"/>
	<path fill="#2B45A5" stroke="#2B45A5" d="M484.7,149.3L690,97.4L482.6,39.2L484.7,149.3z"/>
	<path fill="#293AA2" stroke="#293AA2" d="M484.7,149.3l-2.1-110.1l-45.6,75.9L484.7,149.3z"/>
	<path fill="#2A4AAA" stroke="#2A4AAA" d="M484.7,149.3l-47.7-34.1l-8.2,95.3L484.7,149.3z"/>
	<path fill="#293AA3" stroke="#293AA3" d="M428.9,210.4l8.2-95.3l-148.9-9.6L428.9,210.4z"/>
	<path fill="#293AA3" stroke="#293AA3" d="M428.9,210.4L288.2,105.5l-44.5,95.6L428.9,210.4z"/>
	<path fill="#261C94" stroke="#261C94" d="M243.7,201.1l44.5-95.6l-150-18.1L243.7,201.1z"/>
	<path fill="#272498" stroke="#272498" d="M243.7,201.1L138.2,87.5l63.4,129.4L243.7,201.1z"/>
	<path fill="#261B94" stroke="#261B94" d="M201.6,216.9L138.2,87.5L46.5,219.8L201.6,216.9z"/>
	<path fill="#230286" stroke="#230286" d="M46.5,219.8l91.7-132.3L73.2,18.9L46.5,219.8z"/>
	<path fill="#22007E" stroke="#22007E" d="M46.5,219.8L73.2,18.9l-94.3-0.6L46.5,219.8z"/>
	<path fill="#230D83" stroke="#230D83" d="M46.5,219.8L-21.1,18.3L-75.9,187L46.5,219.8z"/>
	<path fill="#200073" stroke="#200073" d="M-75.9,187l54.8-168.7L-34.6-44L-75.9,187z"/>
	<path fill="#8F809B" stroke="#8F809B" d="M1461.5,38l-10.9-101.8l-50.8,27.8L1461.5,38z"/>
	<path fill="#8D7FA0" stroke="#8D7FA0" d="M1461.5,38l-61.6-74l-31.8,87.3L1461.5,38z"/>
	<path fill="#867C9F" stroke="#867C9F" d="M1368.1,51.3l31.8-87.3L1281.6,81.2L1368.1,51.3z"/>
	<path fill="#7E7994" stroke="#7E7994" d="M1281.6,81.2l118.3-117.3l-193.2-69.4L1281.6,81.2z"/>
	<path fill="#75768E" stroke="#75768E" d="M1281.6,81.2l-74.8-186.6l-37.9,44.8L1281.6,81.2z"/>
	<path fill="#747594" stroke="#747594" d="M1281.6,81.2L1168.8-60.7l-6.7,75.4L1281.6,81.2z"/>
	<path fill="#666F93" stroke="#666F93" d="M1162.1,14.7l6.7-75.4L1002.9,41.8L1162.1,14.7z"/>
	<path fill="#5B6B92" stroke="#5B6B92" d="M1002.9,41.8l165.9-102.5L969.2-21.8L1002.9,41.8z"/>
	<path fill="#4F669E" stroke="#4F669E" d="M1002.9,41.8l-33.7-63.6l-78.7,142.5L1002.9,41.8z"/>
	<path fill="#4B6599" stroke="#4B6599" d="M890.6,120.7l78.7-142.5l-37.2-31.9L890.6,120.7z"/>
	<path fill="#436297" stroke="#436297" d="M890.6,120.7l41.5-174.5L809.9-71.1L890.6,120.7z"/>
	<path fill="#3D5FA0" stroke="#3D5FA0" d="M890.6,120.7L809.9-71.1L754.7,81.3L890.6,120.7z"/>
	<path fill="#305A99" stroke="#305A99" d="M754.7,81.3l55.2-152.4L623.7-24.6L754.7,81.3z"/>
	<path fill="#3056A2" stroke="#3056A2" d="M754.7,81.3l-131-106l66.3,122L754.7,81.3z"/>
	<path fill="#2C4B9D" stroke="#2C4B9D" d="M690,97.4l-66.3-122L482.6,39.2L690,97.4z"/>
	<path fill="#284693" stroke="#284693" d="M482.6,39.2l141.1-63.8L576-69.8L482.6,39.2z"/>
	<path fill="#253D8F" stroke="#253D8F" d="M482.6,39.2l93.4-109L403.7-29.2L482.6,39.2z"/>
	<path fill="#273696" stroke="#273696" d="M482.6,39.2l-78.9-68.4l33.4,144.3L482.6,39.2z"/>
	<path fill="#262B95" stroke="#262B95" d="M437.1,115.1L403.7-29.2L288.2,105.5L437.1,115.1z"/>
	<path fill="#24248A" stroke="#24248A" d="M288.2,105.5L403.7-29.2L299.6-15.7L288.2,105.5z"/>
	<path fill="#241689" stroke="#241689" d="M288.2,105.5l11.4-121.2L138.2,87.5L288.2,105.5z"/>
	<path fill="#220D7E" stroke="#220D7E" d="M138.2,87.5L299.6-15.7L130.5-36.4L138.2,87.5z"/>
	<path fill="#21017A" stroke="#21017A" d="M138.2,87.5l-7.7-123.9L73.2,18.9L138.2,87.5z"/>
	<path fill="#200073" stroke="#200073" d="M73.2,18.9l57.2-55.3L74.6-6.9L73.2,18.9z"/>
	<path fill="#200072" stroke="#200072" d="M73.2,18.9l1.4-25.8l-95.7,25.2L73.2,18.9z"/>
	<path fill="#1E006C" stroke="#1E006C" d="M-21.1,18.3L74.6-6.9L-34.6-44L-21.1,18.3z"/>
	<path fill="#847C8E" stroke="#847C8E" d="M1450.7-63.9l-243.9-41.6l193.2,69.4L1450.7-63.9z"/>
	<path fill="#28498A" stroke="#28498A" d="M1206.8-105.4L-34.6-44L576-69.8L1206.8-105.4z"/>
	<path fill="#3F628A" stroke="#3F628A" d="M1206.8-105.4L576-69.8l233.9-1.2L1206.8-105.4z"/>
	<path fill="#4F6889" stroke="#4F6889" d="M1206.8-105.4L809.9-71.1l122.2,17.4L1206.8-105.4z"/>
	<path fill="#626F88" stroke="#626F88" d="M1206.8-105.4L932.1-53.7l236.8-7L1206.8-105.4z"/>
	<path fill="#576A8D" stroke="#576A8D" d="M1168.8-60.7l-236.8,7l37.2,31.9L1168.8-60.7z"/>
	<path fill="#2C5390" stroke="#2C5390" d="M809.9-71.1L576-69.8l47.7,45.2L809.9-71.1z"/>
	<path fill="#211376" stroke="#211376" d="M576-69.8L-34.6-44l165.1,7.6L576-69.8z"/>
	<path fill="#232A82" stroke="#232A82" d="M576-69.8L130.5-36.4l273.2,7.2L576-69.8z"/>
	<path fill="#221B7E" stroke="#221B7E" d="M403.7-29.2l-273.2-7.2l169.1,20.7L403.7-29.2z"/>
	<path fill="#1F006D" stroke="#1F006D" d="M130.5-36.4L-34.6-44L74.6-6.9L130.5-36.4z"/>

		<path fill="#FBFFDC" stroke="#FBFFDC" d="M1479.3,867.3l60-151.7l-77.4,54.6L1479.3,867.3z"/>
	<path fill="#FFFFE0" stroke="#FFFFE0" d="M1479.3,867.3l-17.3-97.1l-57.4,122L1479.3,867.3z"/>
	<path fill="#F9FEDA" stroke="#F9FEDA" d="M1404.6,892.2l57.4-122l-118.9,0L1404.6,892.2z"/>
	<path fill="#F0FAD9" stroke="#F0FAD9" d="M1404.6,892.2l-61.5-122l-142.5,94.2L1404.6,892.2z"/>
	<path fill="#E7F6D8" stroke="#E7F6D8" d="M1404.6,892.2l-204-27.8l-96.4,3.2L1404.6,892.2z"/>
	<path fill="#CBEBDC" stroke="#CBEBDC" d="M1404.6,892.2l-300.4-24.6l-468.3,68.6L1404.6,892.2z"/>
	<path fill="#E7F7D2" stroke="#E7F7D2" d="M1200.5,864.3l142.5-94.2l-134.5,23.2L1200.5,864.3z"/>
	<path fill="#DEF2D4" stroke="#DEF2D4" d="M1200.5,864.3l8-71l-104.4,74.2L1200.5,864.3z"/>
	<path fill="#D7F0D2" stroke="#D7F0D2" d="M1104.1,867.6l104.4-74.2l-119.9,0L1104.1,867.6z"/>
	<path fill="#CCEBD5" stroke="#CCEBD5" d="M1104.1,867.6l-15.5-74.2L967,871.3L1104.1,867.6z"/>
	<path fill="#B6E3DE" stroke="#B6E3DE" d="M1104.1,867.6L967,871.3l-331.2,64.8L1104.1,867.6z"/>
	<path fill="#C6EAD2" stroke="#C6EAD2" d="M967,871.3l121.7-77.9l-46-44.8L967,871.3z"/>
	<path fill="#BDE6D3" stroke="#BDE6D3" d="M967,871.3l75.7-122.7l-142.9,56.9L967,871.3z"/>
	<path fill="#B8E3D8" stroke="#B8E3D8" d="M967,871.3l-67.2-65.8l-31.4,51.4L967,871.3z"/>
	<path fill="#ACDFDF" stroke="#ACDFDF" d="M967,871.3l-98.6-14.4l-232.6,79.2L967,871.3z"/>
	<path fill="#ADE1D5" stroke="#ADE1D5" d="M868.4,856.9l31.4-51.4L795,771.8L868.4,856.9z"/>
	<path fill="#A7DED9" stroke="#A7DED9" d="M868.4,856.9L795,771.8l-69.2,103.7L868.4,856.9z"/>
	<path fill="#A1DBE0" stroke="#A1DBE0" d="M868.4,856.9l-142.7,18.5l-90,60.7L868.4,856.9z"/>
	<path fill="#9DD8D8" stroke="#9DD8D8" d="M725.7,875.5L795,771.8l-175.4,26L725.7,875.5z"/>
	<path fill="#9DD2DC" stroke="#9DD2DC" d="M725.7,875.5l-106.2-77.6l16.2,138.3L725.7,875.5z"/>
	<path fill="#9ACBDA" stroke="#9ACBDA" d="M635.8,936.1l-16.2-138.3l-73,63.7L635.8,936.1z"/>
	<path fill="#98C4DD" stroke="#98C4DD" d="M635.8,936.1l-89.2-74.6L450,913.3L635.8,936.1z"/>
	<path fill="#95B3D6" stroke="#95B3D6" d="M635.8,936.1L450,913.3l-249,39.4L635.8,936.1z"/>
	<path fill="#95C6D2" stroke="#95C6D2" d="M546.5,861.6l73-63.7L527.5,741L546.5,861.6z"/>
	<path fill="#92C0CF" stroke="#92C0CF" d="M546.5,861.6l-19-120.6l-68.2,12.2L546.5,861.6z"/>
	<path fill="#95BCD4" stroke="#95BCD4" d="M546.5,861.6l-87.3-108.4L450,913.3L546.5,861.6z"/>
	<path fill="#94AECF" stroke="#94AECF" d="M450,913.3l9.3-160.2l-172,149.3L450,913.3z"/>
	<path fill="#93A0CD" stroke="#93A0CD" d="M450,913.3l-162.7-10.9l-86.3,50.3L450,913.3z"/>
	<path fill="#91A4C5" stroke="#91A4C5" d="M287.3,902.4l172-149.3l-206.9,22.5L287.3,902.4z"/>
	<path fill="#9296C5" stroke="#9296C5" d="M287.3,902.4l-34.9-126.8l-51.4,177.1L287.3,902.4z"/>
	<path fill="#908FBC" stroke="#908FBC" d="M200.9,952.8l51.4-177.1l-97.8-18.7L200.9,952.8z"/>
	<path fill="#9086BE" stroke="#9086BE" d="M200.9,952.8l-46.4-195.9L82.3,934.1L200.9,952.8z"/>
	<path fill="#8F80B4" stroke="#8F80B4" d="M82.3,934.1l72.2-177.2L20.6,824L82.3,934.1z"/>
	<path fill="#8E80B2" stroke="#8E80B2" d="M82.3,934.1L20.6,824l-109.9,41.8L82.3,934.1z"/>
	<path fill="#8B80A8" stroke="#8B80A8" d="M-89.3,865.8L20.6,824l-53.8-79.2L-89.3,865.8z"/>
	<path fill="#8880A2" stroke="#8880A2" d="M-89.3,865.8l56.1-121l-29-47.2L-89.3,865.8z"/>
	<path fill="#807F9A" stroke="#807F9A" d="M-89.3,865.8l27.1-168.1l-51.9-144L-89.3,865.8z"/>
	<path fill="#F3FFD4" stroke="#F3FFD4" d="M1462,770.2l77.4-54.6l-144.5-76.4L1462,770.2z"/>
	<path fill="#F2FED1" stroke="#F2FED1" d="M1462,770.2l-67.1-131L1343,770.1L1462,770.2z"/>
	<path fill="#E3F9CC" stroke="#E3F9CC" d="M1343,770.1l51.8-130.9l-164.3,52.9L1343,770.1z"/>
	<path fill="#E4F7CD" stroke="#E4F7CD" d="M1343,770.1l-112.5-78l-22,101.2L1343,770.1z"/>
	<path fill="#D9F3CB" stroke="#D9F3CB" d="M1208.6,793.4l22-101.2l-141.9,101.2L1208.6,793.4z"/>
	<path fill="#CEF1C7" stroke="#CEF1C7" d="M1088.6,793.4l141.9-101.2l-77.5-73.8L1088.6,793.4z"/>
	<path fill="#CAEEC8" stroke="#CAEEC8" d="M1088.6,793.4l64.4-175l-110.3,130.2L1088.6,793.4z"/>
	<path fill="#B8EBC9" stroke="#B8EBC9" d="M1042.7,748.6L1153,618.4L1023.6,657L1042.7,748.6z"/>
	<path fill="#B1E6CA" stroke="#B1E6CA" d="M1042.7,748.6l-19.1-91.6l-126.2,13.5L1042.7,748.6z"/>
	<path fill="#B5E5CC" stroke="#B5E5CC" d="M1042.7,748.6l-145.3-78.1l2.4,135L1042.7,748.6z"/>
	<path fill="#AAE1CF" stroke="#AAE1CF" d="M899.8,805.5l-2.4-135L795,771.8L899.8,805.5z"/>
	<path fill="#9DDECD" stroke="#9DDECD" d="M795,771.8l102.5-101.3l-162.6,4.7L795,771.8z"/>
	<path fill="#96DBCE" stroke="#96DBCE" d="M795,771.8l-60.1-96.6l-25.5,6L795,771.8z"/>
	<path fill="#98D7D1" stroke="#98D7D1" d="M795,771.8l-85.7-90.6l-89.7,116.6L795,771.8z"/>
	<path fill="#93CDCD" stroke="#93CDCD" d="M619.6,797.8l89.7-116.6L527.5,741L619.6,797.8z"/>
	<path fill="#82C9CC" stroke="#82C9CC" d="M527.5,741l181.8-59.8l-154.6-83.5L527.5,741z"/>
	<path fill="#80C0CA" stroke="#80C0CA" d="M527.5,741l27.2-143.2l-64.2,88.9L527.5,741z"/>
	<path fill="#8DBDC8" stroke="#8DBDC8" d="M527.5,741l-37-54.4l-31.2,66.5L527.5,741z"/>
	<path fill="#88B8C5" stroke="#88B8C5" d="M459.3,753.1l31.2-66.5L445,671.2L459.3,753.1z"/>
	<path fill="#85ADC0" stroke="#85ADC0" d="M459.3,753.1L445,671.2l-160.2-0.5L459.3,753.1z"/>
	<path fill="#8BA4BC" stroke="#8BA4BC" d="M459.3,753.1l-174.5-82.4l-32.4,104.9L459.3,753.1z"/>
	<path fill="#8A93B5" stroke="#8A93B5" d="M252.4,775.6l32.4-104.9l-130.2,86.2L252.4,775.6z"/>
	<path fill="#7C8EB2" stroke="#7C8EB2" d="M154.6,756.9l130.2-86.2l-97.7-54.9L154.6,756.9z"/>
	<path fill="#7C83AD" stroke="#7C83AD" d="M154.6,756.9l32.5-141.1L78.5,672.7L154.6,756.9z"/>
	<path fill="#8980AB" stroke="#8980AB" d="M154.6,756.9l-76.1-84.2L20.6,824L154.6,756.9z"/>
	<path fill="#8880A6" stroke="#8880A6" d="M20.6,824l57.9-151.3l-111.7,72.2L20.6,824z"/>
	<path fill="#817FA1" stroke="#817FA1" d="M-33.2,744.8l111.7-72.2l-140.7,25L-33.2,744.8z"/>
	<path fill="#D8FCD8" stroke="#D8FCD8" d="M1539.3,715.6l10.3-196.1l-154.8,119.7L1539.3,715.6z"/>
	<path fill="#C5F8D7" stroke="#C5F8D7" d="M1394.8,639.2l154.8-119.7l-196.1,17.8L1394.8,639.2z"/>
	<path fill="#CAF7CF" stroke="#CAF7CF" d="M1394.8,639.2l-41.3-102l-123,154.9L1394.8,639.2z"/>
	<path fill="#B8F2CD" stroke="#B8F2CD" d="M1230.5,692.1l123-154.9l-128-1.3L1230.5,692.1z"/>
	<path fill="#B7F0CA" stroke="#B7F0CA" d="M1230.5,692.1l-5.1-156.2l-52.6,52.4L1230.5,692.1z"/>
	<path fill="#BCF0C9" stroke="#BCF0C9" d="M1230.5,692.1l-57.7-103.8l-19.8,30L1230.5,692.1z"/>
	<path fill="#9BE8CC" stroke="#9BE8CC" d="M1153,618.4l19.8-30l-151.1-107.8L1153,618.4z"/>
	<path fill="#9AE7CC" stroke="#9AE7CC" d="M1153,618.4l-131.2-137.8l1.9,176.4L1153,618.4z"/>
	<path fill="#86E0CE" stroke="#86E0CE" d="M1023.6,657l-1.9-176.4l-58.5,36.5L1023.6,657z"/>
	<path fill="#87E0CE" stroke="#87E0CE" d="M1023.6,657l-60.4-139.9l-37.7,21.6L1023.6,657z"/>
	<path fill="#94E2CD" stroke="#94E2CD" d="M1023.6,657l-98-118.3l-28.2,131.8L1023.6,657z"/>
	<path fill="#7EDCCF" stroke="#7EDCCF" d="M897.4,670.5l28.2-131.8l-156.1,17.6L897.4,670.5z"/>
	<path fill="#84DBCF" stroke="#84DBCF" d="M897.4,670.5L769.5,556.2l-34.7,118.9L897.4,670.5z"/>
	<path fill="#72D3D1" stroke="#72D3D1" d="M734.8,675.2l34.7-118.9l-136.7,28.2L734.8,675.2z"/>
	<path fill="#7ED3CF" stroke="#7ED3CF" d="M734.8,675.2l-102-90.7l76.5,96.7L734.8,675.2z"/>
	<path fill="#73CBCE" stroke="#73CBCE" d="M709.3,681.2l-76.5-96.7l-78.1,13.3L709.3,681.2z"/>
	<path fill="#77BCC9" stroke="#77BCC9" d="M490.5,686.6l64.2-88.9L445,671.2L490.5,686.6z"/>
	<path fill="#68B7C9" stroke="#68B7C9" d="M445,671.2l109.6-73.4L434.4,548L445,671.2z"/>
	<path fill="#6FA9C1" stroke="#6FA9C1" d="M445,671.2L434.4,548L284.8,670.7L445,671.2z"/>
	<path fill="#629FBE" stroke="#629FBE" d="M284.8,670.7L434.4,548L277,568.7L284.8,670.7z"/>
	<path fill="#6892B7" stroke="#6892B7" d="M284.8,670.7l-7.8-102l-89.9,47.1L284.8,670.7z"/>
	<path fill="#5788B6" stroke="#5788B6" d="M187.1,615.8l89.9-47.1l-113-60.5L187.1,615.8z"/>
	<path fill="#517DB2" stroke="#517DB2" d="M187.1,615.8l-23.2-107.6l-72,12.4L187.1,615.8z"/>
	<path fill="#617DAD" stroke="#617DAD" d="M187.1,615.8L92,520.5L78.5,672.7L187.1,615.8z"/>
	<path fill="#597AA6" stroke="#597AA6" d="M78.5,672.7L92,520.5l-206.1,33.1L78.5,672.7z"/>
	<path fill="#6C7DA1" stroke="#6C7DA1" d="M78.5,672.7l-192.6-119l51.9,144L78.5,672.7z"/>
</g>
<rect opacity="0.5" fill="#1A8AA8" width="2694" height="783"/>
</svg>
